# xmcd
#
# Track frame offsets:
#	150
#	13582
#	31945
#	45075
#	63228
#	80499
#	102203
#	122709
#	143058
#	155948
#	173873
#	192642
#
# Disc length: 2857 seconds
#
# Revision: 1
# Processed by: cddbd v1.5.2PL0 Copyright (c) Steve Scherf et al.
# Submitted via: EasyCDDAExtractor 15.3.0.1
#
DISCID=9a0b270c
DTITLE=Lissette and Willy Chirino - Amarraditos
DYEAR=2007
DGENRE=Latin
TTITLE0=Amarraditos
TTITLE1=Amapola
TTITLE2=Convergencia
TTITLE3=De Repente
TTITLE4=Desvelo De Amor
TTITLE5=Mais Um Adeus
TTITLE6=How Do You Keep The Music Playing
TTITLE7=Cosas De Casa
TTITLE8=Tristeza
TTITLE9=Samba En Preludio
TTITLE10=Palabras Del Alma
TTITLE11=Decir Adios
EXTD=
EXTT0=
EXTT1=
EXTT2=
EXTT3=
EXTT4=
EXTT5=
EXTT6=
EXTT7=
EXTT8=
EXTT9=
EXTT10=
EXTT11=
PLAYORDER=
